<svg xmlns="http://www.w3.org/2000/svg" version="1.0" viewBox="0 0 565 466"><path fill-opacity=".1" d="M266.8 23.7c.6.2 1.8.2 2.5 0 .6-.3.1-.5-1.3-.5-1.4 0-1.9.2-1.2.5zm11 0c.6.2 1.8.2 2.5 0 .6-.3.1-.5-1.3-.5-1.4 0-1.9.2-1.2.5zm-16 14c.7.3 1.6.2 1.9-.1.4-.3-.2-.6-1.3-.5-1.1 0-1.4.3-.6.6zm21 0c.6.2 1.8.2 2.5 0 .6-.3.1-.5-1.3-.5-1.4 0-1.9.2-1.2.5zm-211 149c1.7.2 4.7.2 6.5 0 1.7-.2.3-.4-3.3-.4-3.6 0-5 .2-3.2.4zm140.5 0c7.5.2 19.9.2 27.5 0 7.5-.1 1.3-.3-13.8-.3-15.1 0-21.3.2-13.7.3zm93.5 0c7.8.2 20.6.2 28.5 0 7.8-.1 1.4-.3-14.3-.3-15.7 0-22.1.2-14.2.3zm163 0c1.7.2 4.7.2 6.5 0 1.7-.2.3-.4-3.3-.4-3.6 0-5 .2-3.2.4zm-241.3 15.4c-.4.6-.5 1.2-.2 1.5.2.3.7-.2 1-1.1.7-1.7.1-2-.8-.4zm277.5 3.3c0 .2.8 1 1.8 1.7 1.5 1.3 1.6 1.2.3-.4s-2.1-2.1-2.1-1.3zm-56.9 26.2c0 1.1.3 1.4.6.6.3-.7.2-1.6-.1-1.9-.3-.4-.6.2-.5 1.3zm-226.9 3.9c0 1.6.2 2.2.5 1.2.2-.9.2-2.3 0-3-.3-.6-.5.1-.5 1.8zm278.8 1.9c0 .2.8 1 1.8 1.7 1.5 1.3 1.6 1.2.3-.4s-2.1-2.1-2.1-1.3zm-51.9 2.2c0 1.1.3 1.4.6.6.3-.7.2-1.6-.1-1.9-.3-.4-.6.2-.5 1.3zM150.2 250c0 1.9.2 2.7.5 1.7.2-.9.2-2.5 0-3.5-.3-.9-.5-.1-.5 1.8zm226-.5c0 1.6.2 2.2.5 1.2.2-.9.2-2.3 0-3-.3-.6-.5.1-.5 1.8zM109 252.4c0 .2.8 1 1.8 1.7 1.5 1.3 1.6 1.2.3-.4s-2.1-2.1-2.1-1.3zm14.8 7.3c1.2.2 3 .2 4 0 .9-.3-.1-.5-2.3-.4-2.2 0-3 .2-1.7.4zm226 0c1.2.2 3 .2 4 0 .9-.3-.1-.5-2.3-.4-2.2 0-3 .2-1.7.4zM127 365.4c0 .2.8 1 1.8 1.7 1.5 1.3 1.6 1.2.3-.4s-2.1-2.1-2.1-1.3zm-10 10c0 .2.8 1 1.8 1.7 1.5 1.3 1.6 1.2.3-.4s-2.1-2.1-2.1-1.3zm10 10c0 .2.8 1 1.8 1.7 1.5 1.3 1.6 1.2.3-.4s-2.1-2.1-2.1-1.3zm126.8 44.3c.7.3 1.6.2 1.9-.1.4-.3-.2-.6-1.3-.5-1.1 0-1.4.3-.6.6zm38 0c.7.3 1.6.2 1.9-.1.4-.3-.2-.6-1.3-.5-1.1 0-1.4.3-.6.6z"/><path fill-opacity=".2" d="M271.8 23.7c1.2.2 3 .2 4 0 .9-.3-.1-.5-2.3-.4-2.2 0-3 .2-1.7.4zm-14 14c.6.2 1.8.2 2.5 0 .6-.3.1-.5-1.3-.5-1.4 0-1.9.2-1.2.5zm29 0c.6.2 1.8.2 2.5 0 .6-.3.1-.5-1.3-.5-1.4 0-1.9.2-1.2.5zM399 82.4c0 .2.8 1 1.8 1.7 1.5 1.3 1.6 1.2.3-.4s-2.1-2.1-2.1-1.3zM116.4 93.2l-1.9 2.3 2.3-1.9c1.2-1.1 2.2-2.1 2.2-2.3 0-.8-.8-.2-2.6 1.9zM58.8 201.7c2.3.2 6.1.2 8.5 0 2.3-.2.4-.4-4.3-.4s-6.6.2-4.2.4zm111.4 0c3.7.2 10 .2 14 0 4-.1 1-.3-6.7-.3s-11 .1-7.3.3zm61.6 0c1.7.2 4.7.2 6.5 0 1.7-.2.3-.4-3.3-.4-3.6 0-5 .2-3.2.4zm47 0c1.7.2 4.7.2 6.5 0 1.7-.2.3-.4-3.3-.4-3.6 0-5 .2-3.2.4zm26 0c1.2.2 3 .2 4 0 .9-.3-.1-.5-2.3-.4-2.2 0-3 .2-1.7.4zM162.4 236c0 18.4.2 26 .3 16.7.2-9.2.2-24.2 0-33.5-.1-9.2-.3-1.6-.3 16.8zm231.5-27.3c-1.3 1.6-1.2 1.7.4.4 1.6-1.3 2.1-2.1 1.3-2.1-.2 0-1 .8-1.7 1.7zM137 215.4c0 .2.8 1 1.8 1.7 1.5 1.3 1.6 1.2.3-.4s-2.1-2.1-2.1-1.3zm-36.8 4.6c0 1.4.2 1.9.5 1.2.2-.6.2-1.8 0-2.5-.3-.6-.5-.1-.5 1.3zm348 15.5c0 1.6.2 2.2.5 1.2.2-.9.2-2.3 0-3-.3-.6-.5.1-.5 1.8zm-312.1 16.1c0 1.1.3 1.4.6.6.3-.7.2-1.6-.1-1.9-.3-.4-.6.2-.5 1.3zm302.8 11.1c-1.3 1.6-1.2 1.7.4.4.9-.7 1.7-1.5 1.7-1.7 0-.8-.8-.3-2.1 1.3zm-26.5 110.5-1.9 2.3 2.3-1.9c1.2-1.1 2.2-2.1 2.2-2.3 0-.8-.8-.2-2.6 1.9zM135 392.4c0 .2.8 1 1.8 1.7 1.5 1.3 1.6 1.2.3-.4s-2.1-2.1-2.1-1.3zm136.8 38.3c1.2.2 3 .2 4 0 .9-.3-.1-.5-2.3-.4-2.2 0-3 .2-1.7.4z"/><path fill-opacity=".3" d="M326.2 220.5c0 1.6.2 2.2.5 1.2.2-.9.2-2.3 0-3-.3-.6-.5.1-.5 1.8z"/><path fill="#404040" fill-opacity=".4" d="M299.4 236.5c0 18.1.2 25.7.3 16.8.2-8.9.2-23.7 0-33-.1-9.2-.3-2-.3 16.2zm99.9-1c0 2.2.2 3 .4 1.7.2-1.2.2-3 0-4-.3-.9-.5.1-.4 2.3zm-340.5 7.2c1.7.2 4.7.2 6.5 0 1.7-.2.3-.4-3.3-.4-3.6 0-5 .2-3.2.4zm419.5 0c1.5.2 3.9.2 5.5 0 1.5-.2.2-.4-2.8-.4s-4.3.2-2.7.4zm-277.4 11c-1.3 1.6-1.2 1.7.4.4.9-.7 1.7-1.5 1.7-1.7 0-.8-.8-.3-2.1 1.3zm-18.6 5c.9.2 2.3.2 3 0 .6-.3-.1-.5-1.8-.5-1.6 0-2.2.2-1.2.5zm233.5 1c.6.2 1.8.2 2.5 0 .6-.3.1-.5-1.3-.5-1.4 0-1.9.2-1.2.5zm-151 171c.7.3 1.6.2 1.9-.1.4-.3-.2-.6-1.3-.5-1.1 0-1.4.3-.6.6zm16 0c.7.3 1.6.2 1.9-.1.4-.3-.2-.6-1.3-.5-1.1 0-1.4.3-.6.6z"/><g fill="#404080" stroke-width="0"><path d="M240.8 26.1c-5.9 1-15.8 3.1-22.1 4.8C154.4 48.1 102.2 95.1 77 158.5c-2.7 6.8-8 24.5-8 26.7 0 .5 2.9.8 6.5.8h6.4l1.1-4.3c8.4-32.5 28.8-66.3 54.3-90.1C155 75.1 167.8 66 187.5 56.2c40.1-19.9 90-24.7 136-13.2 53.6 13.5 102.1 53 127.3 103.6 4.3 8.7 11.4 27.3 13.3 34.6l1.1 4.8h6.4c7.5 0 7.5 0 4.3-10.6-13-43.1-36.2-77.8-70-105-30-24-62.1-38.3-100.4-44.4-16.6-2.7-48.8-2.6-64.7.1z"/><path d="M233.2 84.2c-1.8 4.6-4 11-5.1 14.3-1.1 3.3-4.5 13.2-7.6 22-3.1 8.8-6.9 19.8-8.5 24.5-1.6 4.7-5.3 15.6-8.3 24.2-3 8.6-5.2 16-4.9 16.3.3.3 12.6.5 27.2.5 20.2 0 27-.3 27.7-1.3.5-.6 4-10.7 7.7-22.2 8.6-26.9 8-25.7 11.2-25.3 2.5.3 3 1.6 10.6 24.5l7.9 24.3h28.5c22.1 0 28.4-.3 28.4-1.3 0-.6-2.7-9.1-6-18.7-3.4-9.6-7.4-21.3-9-26-3-9.1-7.5-22-16.4-47.5-3.1-8.8-5.6-16.1-5.6-16.3 0-.1-16.8-.2-37.4-.2h-37.3l-3.1 8.2zm-114 116.9c-10.2 2-17 8.2-17.9 16.3-.9 7.4.4 11.3 5 15.9 4.2 4.2 6.9 5.4 21 9.2 3.2.9 6.7 2.5 7.7 3.5 2.3 2.3 2.6 7.6.7 10.1-4.7 6.2-18.9 4.8-25.6-2.5-1.4-1.4-3-2.6-3.6-2.6-.6 0-2.6 1.8-4.4 4.1l-3.3 4.1 3.2 3.3c5.4 5.6 12 7.9 23 7.9 8.3.1 10.2-.2 14.5-2.4 9.2-4.8 13.2-17.5 8.6-27.6-3-6.6-8.8-9.8-23.2-12.9-8.5-1.8-11.2-3.8-11.2-8.5 0-3.9 1.7-5.8 6.5-7 5.2-1.4 12-.3 16.4 2.6 1.9 1.3 3.9 2.4 4.3 2.4.9 0 6.1-7.5 6.1-8.7 0-1.9-7.2-5.5-13.6-6.8-7.7-1.6-8.1-1.6-14.2-.4zm227.8-.4c-9.5 1.7-15.4 5.4-18.6 11.4-1.8 3.5-1.8 12 0 16.2 2.7 6.3 10.6 11.2 21 13.1 12.7 2.3 17.3 9.1 10.7 15.7-2.5 2.4-3.7 2.9-8.1 2.9-6.4 0-11.5-2.1-16.1-6.6l-3.6-3.5-3.7 4.2c-2 2.3-3.6 4.6-3.6 4.9 0 .4 1.2 2 2.8 3.5 6.5 6.7 20.2 9.9 31.7 7.5 10.9-2.3 17.5-11.8 16.2-23.2-1.3-10.5-6.9-15.2-22.5-18.6-10.9-2.5-13.5-4.3-13.5-9.2 0-3.8 1.7-5.7 6.4-7.2 4.7-1.4 13.4.3 17.2 3.3 1.4 1 2.9 1.9 3.4 1.9.4 0 2.1-1.9 3.7-4.2l3-4.1-3.3-2.8c-4.3-3.6-16.7-6.4-23.1-5.2zm58 1.8c-10.1 3.1-17.4 13.3-19.1 26.5-1.7 14.1 1.8 26.6 9.8 34.2 5.6 5.3 11.2 7.3 21.3 7.3 13.9 0 22.1-5.1 27.9-17.5 2.2-4.8 2.6-6.8 2.6-16.5 0-14.3-1.8-19.8-8.9-27.1-3.9-4-6.4-5.6-10.5-6.8-6.6-1.9-17-2-23.1-.1zm21.5 11.5c6.2 3.8 9.5 16.3 7.6 28.6-1.8 11.8-7.2 17.4-16.8 17.4-9.5 0-14.4-3.5-17.2-12.3-1.6-4.7-1.6-18.1-.1-23.8 1.3-4.8 7.3-11.4 11.2-12.2 4.3-1 11.9.2 15.3 2.3zM53.7 203.7c-.3 1-5.3 15.7-11.1 32.8-5.8 17-10.6 31.6-10.6 32.3 0 1 1.6 1.2 6.2 1l6.2-.3 2.4-7.8 2.4-7.7h26.6l2.7 8 2.7 8h6.4c3.5 0 6.4-.4 6.4-.9 0-1-20.3-60.8-22-64.9-.9-2-1.6-2.2-9.4-2.2-7.1 0-8.4.3-8.9 1.7zm13.7 25c2.1 6.5 4.1 12.4 4.3 13 .4 1-1.7 1.3-8.6 1.3-6.6 0-9.1-.3-9.1-1.3 0-2.9 7.4-24.7 8.4-24.7.7 0 2.9 5.3 5 11.7zm95.8 7 .3 33.8 12 .3c14.9.3 24.4-1.1 30.9-4.6 11.1-6.1 16.3-20.1 13.7-37.1-1.9-12-6.7-18.8-16.6-23.3-4.5-2-6.9-2.3-22.8-2.6l-17.7-.4.2 33.9zm35.3-20.4c5.9 3.2 8.7 9.6 8.8 19.5.2 17.4-6.2 24.1-23 24.2H176v-46h9.3c7.6 0 9.9.4 13.2 2.3zm29.6-12.6c0 .5 5.1 15.6 11.2 33.8l11.2 33h15.9l11.2-33.5c6.2-18.4 11.3-33.6 11.3-33.8.1-.2-2.9-.2-6.6 0l-6.8.3L268 226c-9.2 28.6-8.5 26.9-10.2 24.9-.7-.9-4.7-12.3-8.8-25.3l-7.4-23.6h-6.8c-3.7 0-6.8.3-6.7.7zM300 236v34.1l6.3-.3 6.2-.3v-67l-6.2-.3-6.3-.3V236zm163.2-.3.3 33.8 5.7.3 5.7.3.3-13.8.3-13.8 6.1-.3c8.5-.4 9.7.8 14.7 15.3l4.2 12 5.4.3c3 .2 5.8-.1 6.4-.7.7-.7-.5-5.1-3.3-13.3-3.3-9.3-5.2-13.1-7.8-15.8-1.9-1.9-3-3.6-2.6-3.7 3.1-1 7.7-4.8 9.4-7.5 3-5 2.8-14.2-.5-19.1-4.5-6.5-6.8-7.2-26.8-7.5l-17.7-.4.2 33.9zm32.3-20.2c4.2 4.1 2.8 12.3-2.5 14.5-1.4.6-6 1-10.1.8l-7.4-.3-.3-8.8-.3-8.7h9.1c8.3 0 9.3.2 11.5 2.5zM70.6 288.7c3.1 13.8 13.2 37.5 22.6 53.1 28.1 46.7 77.6 83.5 128.7 95.7 20.4 4.8 29.5 5.9 51.6 5.9 28 0 48.3-3.5 72.2-12.3 52.2-19.1 93.4-56.8 117.9-107.5 5.8-12 13.4-32.6 13.4-36.1 0-1.2-1.4-1.5-6.3-1.5h-6.4l-3.2 9.7c-14.7 43.5-43.2 79.9-82.1 104.8-20.9 13.4-48.3 23.6-75.1 28.2-14.4 2.4-46.4 2.4-60.8 0-20.2-3.4-40.9-10.1-58.6-19-44.9-22.4-82.4-65.4-97.6-111.7l-3.8-11.5-6.6-.3-6.6-.3.7 2.8z"/><path d="M161.7 290.2c-.8 2.4-5.8 16.9-11.2 32.3-13.8 39.7-15.7 45.6-15.1 47.1.4 1.1 5.8 1.4 28.1 1.4 27.1 0 31.5-.5 31.5-3.3 0-.7 4.7-15.4 10.4-32.7l10.3-31.5h113.8l10.9 33c6 18.1 11.4 33.3 12 33.7.6.5 14.2.7 30.1.5l29-.2-.1-2.5c-.1-1.4-1.5-6.3-3.2-11-1.7-4.7-7.6-21.8-13.2-38s-10.6-30.3-11.1-31.2c-.9-1.7-6.9-1.8-110.8-1.8H163.2l-1.5 4.2z"/></g><path fill="#404040" fill-opacity=".3" d="M179.7 213.7c1.8.2 5 .2 7 0 2.1-.2.7-.4-3.2-.4-3.8 0-5.5.2-3.8.4zm300.1 0c2.3.2 5.9.2 8 0 2-.2.1-.4-4.3-.4-4.4 0-6.1.2-3.7.4zM200.5 218c1 1.1 2 2 2.3 2 .3 0-.3-.9-1.3-2s-2-2-2.3-2c-.3 0 .3.9 1.3 2zm232.7 13c0 1.4.2 1.9.5 1.2.2-.6.2-1.8 0-2.5-.3-.6-.5-.1-.5 1.3zm-227 1c0 1.4.2 1.9.5 1.2.2-.6.2-1.8 0-2.5-.3-.6-.5-.1-.5 1.3zm0 8c0 1.4.2 1.9.5 1.2.2-.6.2-1.8 0-2.5-.3-.6-.5-.1-.5 1.3zm226.9.6c0 1.1.3 1.4.6.6.3-.7.2-1.6-.1-1.9-.3-.4-.6.2-.5 1.3zm-363.9 1c-.7.8-.8 1.4-.3 1.4 1 0 2.5-1.9 2-2.5-.2-.1-1 .3-1.7 1.1zM404.5 255c1 1.1 2 2 2.3 2 .3 0-.3-.9-1.3-2s-2-2-2.3-2c-.3 0 .3.9 1.3 2z"/><path fill="#404080" fill-opacity=".9" d="M415.8 200.7c.6.2 1.8.2 2.5 0 .6-.3.1-.5-1.3-.5-1.4 0-1.9.2-1.2.5zM138.5 378c1 1.1 2 2 2.3 2 .3 0-.3-.9-1.3-2s-2-2-2.3-2c-.3 0 .3.9 1.3 2z"/><path fill="#404040" fill-opacity=".5" d="M254.3 75.7c9.7.2 25.7.2 35.5 0 9.7-.1 1.7-.2-17.8-.2s-27.5.1-17.7.2zM504 205.4c0 .2.8 1 1.8 1.7 1.5 1.3 1.6 1.2.3-.4s-2.1-2.1-2.1-1.3zm-380.7 6.3c.9.2 2.5.2 3.5 0 .9-.3.1-.5-1.8-.5-1.9 0-2.7.2-1.7.5zm226 0c.9.2 2.5.2 3.5 0 .9-.3.1-.5-1.8-.5-1.9 0-2.7.2-1.7.5zM176.4 236c0 12.4.2 17.4.3 11.2.2-6.1.2-16.3 0-22.5-.1-6.1-.3-1.1-.3 11.3zm222.7-5.4c0 1.1.3 1.4.6.6.3-.7.2-1.6-.1-1.9-.3-.4-.6.2-.5 1.3zm0 10c0 1.1.3 1.4.6.6.3-.7.2-1.6-.1-1.9-.3-.4-.6.2-.5 1.3zm28.8 15.1c-1.3 1.6-1.2 1.7.4.4.9-.7 1.7-1.5 1.7-1.7 0-.8-.8-.3-2.1 1.3zm-239.1 3c.7.3 1.6.2 1.9-.1.4-.3-.2-.6-1.3-.5-1.1 0-1.4.3-.6.6zm224 1c.7.3 1.6.2 1.9-.1.4-.3-.2-.6-1.3-.5-1.1 0-1.4.3-.6.6zm-339.5 26c1.5.2 3.9.2 5.5 0 1.5-.2.2-.4-2.8-.4s-4.3.2-2.7.4zm144.9 0c30.2.2 79.4.2 109.5 0 30.2-.1 5.5-.2-54.7-.2s-84.9.1-54.8.2zm249.6 0c1.8.2 4.5.2 6 0s0-.4-3.3-.4-4.5.2-2.7.4z"/><path fill="#404040" fill-opacity=".6" d="M470.8 201.7c3.9.2 10.5.2 14.5 0 3.9-.1.7-.3-7.3-.3s-11.2.2-7.2.3zm4.6 20.8.1 8 7.8.1h7.7l-7.5-.3-7.4-.4-.4-7.7-.3-7.7v8z"/><path fill="#404040" fill-opacity=".7" d="M414.8 211.7c1.2.2 3 .2 4 0 .9-.3-.1-.5-2.3-.4-2.2 0-3 .2-1.7.4zM207.2 236c0 1.9.2 2.7.5 1.7.2-.9.2-2.5 0-3.5-.3-.9-.5-.1-.5 1.8zm227 0c0 1.9.2 2.7.5 1.7.2-.9.2-2.5 0-3.5-.3-.9-.5-.1-.5 1.8z"/><path fill="#404040" fill-opacity=".8" d="M462.4 236c0 18.4.2 26 .3 16.7.2-9.2.2-24.2 0-33.5-.1-9.2-.3-1.6-.3 16.8zm47.8-16c0 1.4.2 1.9.5 1.2.2-.6.2-1.8 0-2.5-.3-.6-.5-.1-.5 1.3z"/><path fill="#404040" fill-opacity=".2" d="m404.4 217.2-1.9 2.3 2.3-1.9c1.2-1.1 2.2-2.1 2.2-2.3 0-.8-.8-.2-2.6 1.9zm23 38-1.9 2.3 2.3-1.9c1.2-1.1 2.2-2.1 2.2-2.3 0-.8-.8-.2-2.6 1.9zm39.9 15.5c1.5.2 3.9.2 5.5 0 1.5-.2.2-.4-2.8-.4s-4.3.2-2.7.4zm37.5 0c1.2.2 3.2.2 4.5 0 1.2-.2.2-.4-2.3-.4s-3.5.2-2.2.4z"/><path fill="gray" fill-opacity=".7" d="M475.4 256c0 7.4.1 10.5.3 6.7.2-3.7.2-9.7 0-13.5-.2-3.7-.3-.6-.3 6.8z"/></svg>